<svg width="126" height="18" viewBox="0 0 126 18" fill="none" xmlns="http://www.w3.org/2000/svg">
<path d="M10.2273 1.92858C5.98855 1.92858 2.49289 5.11875 1.98153 9.24108C2.35707 9.08839 2.76455 9 3.19602 9C4.25471 9 5.11364 9.86384 5.11364 10.9286V16.0714C5.11364 17.1361 4.25471 18 3.19602 18C1.43022 18 0 16.5616 0 14.7858V14.1428V12.2143V10.2857C0 4.60447 4.5783 0 10.2273 0C15.8763 0 20.4545 4.60447 20.4545 10.2857V12.2143V14.1428V14.7858C20.4545 16.5616 19.0244 18 17.2585 18C16.1999 18 15.3409 17.1361 15.3409 16.0714V10.9286C15.3409 9.86384 16.1999 9 17.2585 9C17.69 9 18.0975 9.08438 18.473 9.24108C17.9617 5.11875 14.466 1.92858 10.2273 1.92858Z" fill="#048A81"/>
<path d="M23.0072 16.2272L28.0145 4.77271H31.8108L36.8181 16.2272H32.8254L29.1272 6.60543H30.6327L26.9345 16.2272H23.0072ZM25.9854 14.2309L26.9672 11.4491H32.2363L33.2181 14.2309H25.9854ZM42.2001 16.3909C41.491 16.3909 40.8474 16.2491 40.2692 15.9654C39.7019 15.6709 39.2547 15.2182 38.9274 14.6073C38.6001 13.9854 38.4365 13.1891 38.4365 12.2182V7.27634H42.1347V11.58C42.1347 12.2127 42.2383 12.6545 42.4456 12.9054C42.6528 13.1563 42.9365 13.2818 43.2965 13.2818C43.5147 13.2818 43.7165 13.2272 43.9019 13.1182C44.0983 12.9982 44.2565 12.8073 44.3765 12.5454C44.4965 12.2727 44.5565 11.9182 44.5565 11.4818V7.27634H48.2547V16.2272H44.7365V13.6418L45.4401 14.3454C45.1237 15.0436 44.671 15.5618 44.0819 15.9C43.5037 16.2272 42.8765 16.3909 42.2001 16.3909ZM51.2041 16.2272V7.27634H54.7222V9.97634L54.1495 9.20725C54.4222 8.50907 54.8586 7.98543 55.4586 7.63634C56.0586 7.28725 56.7786 7.1127 57.6186 7.1127V10.3854C57.455 10.3636 57.3077 10.3473 57.1768 10.3363C57.0568 10.3254 56.9313 10.32 56.8004 10.32C56.2441 10.32 55.7859 10.4672 55.4259 10.7618C55.0768 11.0454 54.9022 11.5418 54.9022 12.2509V16.2272H51.2041ZM64.8969 16.2272V14.64L64.6351 14.2145V11.2036C64.6351 10.7673 64.4987 10.4345 64.226 10.2054C63.9642 9.97634 63.5332 9.8618 62.9332 9.8618C62.5296 9.8618 62.1205 9.92725 61.706 10.0582C61.2914 10.1782 60.9369 10.3473 60.6423 10.5654L59.4642 8.12725C59.9878 7.79998 60.6151 7.54907 61.346 7.37452C62.0769 7.19998 62.7914 7.1127 63.4896 7.1127C65.0278 7.1127 66.2169 7.45634 67.0569 8.14361C67.9078 8.83089 68.3332 9.9218 68.3332 11.4163V16.2272H64.8969ZM62.3605 16.3909C61.6296 16.3909 61.0187 16.2654 60.5278 16.0145C60.0369 15.7636 59.666 15.4309 59.4151 15.0163C59.1642 14.5909 59.0387 14.1218 59.0387 13.6091C59.0387 13.0309 59.186 12.54 59.4805 12.1363C59.7751 11.7327 60.2223 11.4272 60.8223 11.22C61.4333 11.0127 62.2023 10.9091 63.1296 10.9091H64.9951V12.6927H63.7187C63.326 12.6927 63.0369 12.7582 62.8514 12.8891C62.6769 13.0091 62.5896 13.1945 62.5896 13.4454C62.5896 13.6527 62.666 13.8273 62.8187 13.9691C62.9823 14.1 63.2005 14.1654 63.4733 14.1654C63.7242 14.1654 63.9532 14.1 64.1605 13.9691C64.3787 13.8273 64.5369 13.6091 64.6351 13.3145L65.1096 14.4109C64.9678 15.0763 64.6678 15.5727 64.2096 15.9C63.7514 16.2272 63.1351 16.3909 62.3605 16.3909ZM71.3551 16.2272V4.77271H77.4751C79.0569 4.77271 80.2242 5.05634 80.9769 5.62361C81.7296 6.17998 82.106 6.89452 82.106 7.76725C82.106 8.34543 81.9423 8.86361 81.6151 9.3218C81.2987 9.76907 80.8351 10.1236 80.2242 10.3854C79.6132 10.6473 78.8605 10.7782 77.966 10.7782L78.2933 9.89452C79.1878 9.89452 79.9569 10.02 80.6005 10.2709C81.2551 10.5218 81.7569 10.8872 82.106 11.3672C82.466 11.8363 82.646 12.4036 82.646 13.0691C82.646 14.0618 82.2314 14.8363 81.4023 15.3927C80.5842 15.9491 79.3842 16.2272 77.8023 16.2272H71.3551ZM75.1514 13.5272H77.4751C77.9005 13.5272 78.2169 13.4509 78.4242 13.2982C78.6423 13.1454 78.7514 12.9218 78.7514 12.6272C78.7514 12.3327 78.6423 12.1091 78.4242 11.9563C78.2169 11.8036 77.9005 11.7273 77.4751 11.7273H74.8896V9.17452H76.9514C77.3878 9.17452 77.7042 9.10361 77.9005 8.9618C78.1078 8.80907 78.2114 8.59634 78.2114 8.32361C78.2114 8.03998 78.1078 7.82725 77.9005 7.68543C77.7042 7.54361 77.3878 7.4727 76.9514 7.4727H75.1514V13.5272ZM90.1478 16.3909C89.0568 16.3909 88.1023 16.1891 87.2841 15.7854C86.4768 15.3818 85.8496 14.8309 85.4023 14.1327C84.955 13.4236 84.7314 12.6273 84.7314 11.7436C84.7314 10.8382 84.9496 10.0363 85.3859 9.33816C85.8332 8.63998 86.4387 8.09452 87.2023 7.7018C87.9768 7.30907 88.8441 7.1127 89.8041 7.1127C90.6878 7.1127 91.5005 7.28725 92.2423 7.63634C92.995 7.98543 93.595 8.50361 94.0423 9.19089C94.5005 9.87816 94.7296 10.7291 94.7296 11.7436C94.7296 11.8745 94.7241 12.0218 94.7132 12.1854C94.7023 12.3382 94.6914 12.48 94.6805 12.6109H87.7914V10.8273H92.7168L91.3259 11.3018C91.3259 10.9527 91.2605 10.6582 91.1296 10.4182C91.0096 10.1673 90.8405 9.97634 90.6223 9.84543C90.4041 9.70361 90.1423 9.6327 89.8368 9.6327C89.5314 9.6327 89.2641 9.70361 89.035 9.84543C88.8168 9.97634 88.6477 10.1673 88.5277 10.4182C88.4077 10.6582 88.3477 10.9527 88.3477 11.3018V11.8582C88.3477 12.24 88.4241 12.5673 88.5768 12.84C88.7296 13.1127 88.9478 13.32 89.2314 13.4618C89.515 13.5927 89.8587 13.6582 90.2623 13.6582C90.6768 13.6582 91.015 13.6036 91.2768 13.4945C91.5496 13.3854 91.8332 13.2218 92.1277 13.0036L94.0587 14.9509C93.6223 15.42 93.0823 15.78 92.4387 16.0309C91.8059 16.2709 91.0423 16.3909 90.1478 16.3909ZM102.382 16.2272V14.64L102.12 14.2145V11.2036C102.12 10.7673 101.984 10.4345 101.711 10.2054C101.45 9.97634 101.019 9.8618 100.419 9.8618C100.015 9.8618 99.6059 9.92725 99.1914 10.0582C98.7768 10.1782 98.4223 10.3473 98.1278 10.5654L96.9496 8.12725C97.4732 7.79998 98.1005 7.54907 98.8314 7.37452C99.5623 7.19998 100.277 7.1127 100.975 7.1127C102.513 7.1127 103.702 7.45634 104.542 8.14361C105.393 8.83089 105.819 9.9218 105.819 11.4163V16.2272H102.382ZM99.8459 16.3909C99.115 16.3909 98.5041 16.2654 98.0132 16.0145C97.5223 15.7636 97.1514 15.4309 96.9005 15.0163C96.6496 14.5909 96.5241 14.1218 96.5241 13.6091C96.5241 13.0309 96.6714 12.54 96.9659 12.1363C97.2605 11.7327 97.7077 11.4272 98.3077 11.22C98.9187 11.0127 99.6878 10.9091 100.615 10.9091H102.48V12.6927H101.204C100.811 12.6927 100.522 12.7582 100.337 12.8891C100.162 13.0091 100.075 13.1945 100.075 13.4454C100.075 13.6527 100.151 13.8273 100.304 13.9691C100.468 14.1 100.686 14.1654 100.959 14.1654C101.21 14.1654 101.439 14.1 101.646 13.9691C101.864 13.8273 102.022 13.6091 102.12 13.3145L102.595 14.4109C102.453 15.0763 102.153 15.5727 101.695 15.9C101.237 16.2272 100.62 16.3909 99.8459 16.3909ZM113.046 16.3909C111.813 16.3909 110.853 16.0963 110.166 15.5072C109.479 14.9072 109.135 13.9909 109.135 12.7582V5.26361H112.833V12.7254C112.833 12.9982 112.904 13.2109 113.046 13.3636C113.199 13.5163 113.384 13.5927 113.602 13.5927C113.919 13.5927 114.197 13.5109 114.437 13.3472L115.321 15.9163C115.037 16.08 114.693 16.2 114.29 16.2763C113.897 16.3527 113.482 16.3909 113.046 16.3909ZM107.908 10.4673V7.76725H114.666V10.4673H107.908ZM121.064 16.3909C120.3 16.3909 119.547 16.3091 118.805 16.1454C118.064 15.9818 117.464 15.7691 117.005 15.5072L118.02 13.0691C118.445 13.32 118.936 13.5163 119.493 13.6582C120.06 13.8 120.611 13.8709 121.145 13.8709C121.593 13.8709 121.893 13.8327 122.045 13.7563C122.209 13.68 122.291 13.5763 122.291 13.4454C122.291 13.3145 122.198 13.2218 122.013 13.1672C121.827 13.1018 121.582 13.0527 121.276 13.02C120.971 12.9873 120.633 12.9491 120.262 12.9054C119.902 12.8509 119.536 12.7745 119.165 12.6763C118.794 12.5782 118.456 12.4309 118.151 12.2345C117.845 12.0382 117.6 11.7763 117.414 11.4491C117.229 11.1109 117.136 10.6854 117.136 10.1727C117.136 9.60543 117.305 9.0927 117.644 8.63452C117.993 8.17634 118.505 7.81089 119.182 7.53816C119.869 7.25452 120.714 7.1127 121.718 7.1127C122.373 7.1127 123.027 7.1727 123.682 7.2927C124.336 7.4127 124.898 7.59816 125.367 7.84907L124.353 10.2873C123.894 10.0363 123.442 9.86725 122.994 9.77998C122.558 9.6818 122.149 9.6327 121.767 9.6327C121.298 9.6327 120.976 9.67634 120.802 9.76361C120.638 9.85089 120.556 9.94907 120.556 10.0582C120.556 10.1891 120.649 10.2873 120.834 10.3527C121.02 10.4182 121.265 10.4672 121.571 10.5C121.876 10.5327 122.209 10.5763 122.569 10.6309C122.94 10.6745 123.305 10.7509 123.665 10.86C124.036 10.9582 124.374 11.1054 124.68 11.3018C124.985 11.4982 125.231 11.7654 125.416 12.1036C125.602 12.4309 125.694 12.8509 125.694 13.3636C125.694 13.8982 125.525 14.4 125.187 14.8691C124.849 15.3272 124.336 15.6982 123.649 15.9818C122.962 16.2545 122.1 16.3909 121.064 16.3909Z" fill="#048A81"/>
</svg>
