<svg width="181" height="26" viewBox="0 0 181 26" fill="none" xmlns="http://www.w3.org/2000/svg">
<path d="M14.6707 2.85634C8.59041 2.85634 3.57599 7.43255 2.84245 13.3459C3.38116 13.1269 3.96568 13.0001 4.58461 13.0001C6.10327 13.0001 7.33537 14.2393 7.33537 15.7666V23.1439C7.33537 24.6712 6.10327 25.9104 4.58461 25.9104C2.05162 25.9104 0 23.8471 0 21.2996V20.3773V17.6109V14.8444C0 6.69483 6.56745 0.0898438 14.6707 0.0898438C22.7741 0.0898438 29.3415 6.69483 29.3415 14.8444V17.6109V20.3773V21.2996C29.3415 23.8471 27.2899 25.9104 24.7568 25.9104C23.2383 25.9104 22.0061 24.6712 22.0061 23.1439V15.7666C22.0061 14.2393 23.2383 13.0001 24.7568 13.0001C25.3759 13.0001 25.9604 13.1211 26.4991 13.3459C25.7656 7.43255 20.7511 2.85634 14.6707 2.85634Z" fill="white"/>
<path d="M33.0032 23.3673L40.186 6.93604H45.6318L52.8146 23.3673H47.0871L41.7822 9.56503H43.9417L38.6367 23.3673H33.0032ZM37.2753 20.5035L38.6837 16.5131H46.2421L47.6505 20.5035H37.2753ZM60.5349 23.602C59.5177 23.602 58.5944 23.3986 57.7651 22.9917C56.9513 22.5692 56.3097 21.9198 55.8402 21.0434C55.3708 20.1514 55.1361 19.0091 55.1361 17.6163V10.5274H60.441V16.7009C60.441 17.6085 60.5897 18.2423 60.887 18.6022C61.1843 18.9621 61.5912 19.1421 62.1076 19.1421C62.4206 19.1421 62.7101 19.0639 62.9761 18.9074C63.2578 18.7352 63.4847 18.4614 63.6568 18.0858C63.829 17.6946 63.915 17.186 63.915 16.56V10.5274H69.22V23.3673H64.1732V19.6585L65.1826 20.6679C64.7288 21.6694 64.0793 22.4127 63.2343 22.8978C62.4049 23.3673 61.5051 23.602 60.5349 23.602ZM73.4508 23.3673V10.5274H78.4976V14.4005L77.676 13.2973C78.0672 12.2957 78.6932 11.5446 79.5538 11.0438C80.4145 10.5431 81.4474 10.2927 82.6523 10.2927V14.9873C82.4176 14.956 82.2063 14.9326 82.0185 14.9169C81.8464 14.9013 81.6664 14.8934 81.4787 14.8934C80.6806 14.8934 80.0233 15.1047 79.5069 15.5272C79.0061 15.9341 78.7558 16.6461 78.7558 17.6633V23.3673H73.4508ZM93.0928 23.3673V21.0904L92.7172 20.4801V16.161C92.7172 15.535 92.5216 15.0578 92.1304 14.7291C91.7548 14.4005 91.1367 14.2362 90.276 14.2362C89.697 14.2362 89.1102 14.3301 88.5155 14.5179C87.9209 14.69 87.4123 14.9326 86.9898 15.2455L85.2997 11.748C86.0508 11.2786 86.9506 10.9187 87.9991 10.6683C89.0476 10.4179 90.0726 10.2927 91.0741 10.2927C93.2806 10.2927 94.9863 10.7856 96.1913 11.7715C97.4119 12.7574 98.0222 14.3223 98.0222 16.4662V23.3673H93.0928ZM89.4545 23.602C88.406 23.602 87.5297 23.422 86.8255 23.0621C86.1213 22.7022 85.5892 22.2249 85.2293 21.6303C84.8694 21.02 84.6894 20.3471 84.6894 19.6116C84.6894 18.7822 84.9007 18.078 85.3232 17.499C85.7457 16.92 86.3873 16.4818 87.248 16.1845C88.1243 15.8871 89.2275 15.7385 90.5577 15.7385H93.2336V18.2971H91.4027C90.8394 18.2971 90.4247 18.391 90.1587 18.5787C89.9083 18.7509 89.7831 19.0169 89.7831 19.3768C89.7831 19.6742 89.8926 19.9245 90.1117 20.128C90.3464 20.3158 90.6594 20.4096 91.0506 20.4096C91.4106 20.4096 91.7392 20.3158 92.0365 20.128C92.3495 19.9245 92.5764 19.6116 92.7172 19.189L93.398 20.7617C93.1945 21.7163 92.7642 22.4283 92.1069 22.8978C91.4497 23.3673 90.5655 23.602 89.4545 23.602ZM102.357 23.3673V6.93604H111.136C113.405 6.93604 115.079 7.3429 116.159 8.15664C117.239 8.95473 117.779 9.97973 117.779 11.2316C117.779 12.061 117.544 12.8043 117.075 13.4616C116.621 14.1032 115.956 14.6118 115.079 14.9873C114.203 15.3629 113.123 15.5507 111.84 15.5507L112.31 14.2831C113.593 14.2831 114.696 14.4631 115.619 14.823C116.558 15.183 117.278 15.7072 117.779 16.3957C118.295 17.0686 118.553 17.8824 118.553 18.8369C118.553 20.261 117.959 21.372 116.769 22.1701C115.596 22.9682 113.874 23.3673 111.605 23.3673H102.357ZM107.803 19.4942H111.136C111.746 19.4942 112.2 19.3847 112.497 19.1656C112.81 18.9465 112.967 18.6257 112.967 18.2032C112.967 17.7807 112.81 17.4599 112.497 17.2408C112.2 17.0217 111.746 16.9121 111.136 16.9121H107.427V13.2503H110.385C111.011 13.2503 111.464 13.1486 111.746 12.9452C112.043 12.7261 112.192 12.4209 112.192 12.0297C112.192 11.6228 112.043 11.3177 111.746 11.1143C111.464 10.9108 111.011 10.8091 110.385 10.8091H107.803V19.4942ZM129.314 23.602C127.75 23.602 126.38 23.3125 125.207 22.7335C124.049 22.1545 123.149 21.3642 122.507 20.3627C121.866 19.3455 121.545 18.2032 121.545 16.9356C121.545 15.6368 121.858 14.4866 122.484 13.4851C123.125 12.4835 123.994 11.7011 125.089 11.1377C126.2 10.5744 127.444 10.2927 128.822 10.2927C130.089 10.2927 131.255 10.5431 132.319 11.0438C133.399 11.5446 134.259 12.2879 134.901 13.2738C135.558 14.2597 135.887 15.4803 135.887 16.9356C135.887 17.1234 135.879 17.3347 135.864 17.5694C135.848 17.7885 135.832 17.9919 135.817 18.1797H125.934V15.6211H133L131.005 16.3018C131.005 15.8011 130.911 15.3786 130.723 15.0343C130.551 14.6744 130.308 14.4005 129.995 14.2127C129.682 14.0093 129.307 13.9076 128.868 13.9076C128.43 13.9076 128.047 14.0093 127.718 14.2127C127.405 14.4005 127.163 14.6744 126.991 15.0343C126.819 15.3786 126.732 15.8011 126.732 16.3018V17.0999C126.732 17.6476 126.842 18.1171 127.061 18.5083C127.28 18.8995 127.593 19.1969 128 19.4003C128.407 19.5881 128.9 19.682 129.479 19.682C130.073 19.682 130.559 19.6037 130.934 19.4472C131.325 19.2908 131.732 19.056 132.155 18.7431L134.925 21.5364C134.299 22.2093 133.524 22.7257 132.601 23.0856C131.693 23.4299 130.598 23.602 129.314 23.602ZM146.865 23.3673V21.0904L146.489 20.4801V16.161C146.489 15.535 146.293 15.0578 145.902 14.7291C145.527 14.4005 144.909 14.2362 144.048 14.2362C143.469 14.2362 142.882 14.3301 142.287 14.5179C141.693 14.69 141.184 14.9326 140.762 15.2455L139.072 11.748C139.823 11.2786 140.722 10.9187 141.771 10.6683C142.819 10.4179 143.844 10.2927 144.846 10.2927C147.052 10.2927 148.758 10.7856 149.963 11.7715C151.184 12.7574 151.794 14.3223 151.794 16.4662V23.3673H146.865ZM143.226 23.602C142.178 23.602 141.301 23.422 140.597 23.0621C139.893 22.7022 139.361 22.2249 139.001 21.6303C138.641 21.02 138.461 20.3471 138.461 19.6116C138.461 18.7822 138.672 18.078 139.095 17.499C139.518 16.92 140.159 16.4818 141.02 16.1845C141.896 15.8871 142.999 15.7385 144.33 15.7385H147.005V18.2971H145.175C144.611 18.2971 144.196 18.391 143.93 18.5787C143.68 18.7509 143.555 19.0169 143.555 19.3768C143.555 19.6742 143.664 19.9245 143.884 20.128C144.118 20.3158 144.431 20.4096 144.822 20.4096C145.182 20.4096 145.511 20.3158 145.808 20.128C146.121 19.9245 146.348 19.6116 146.489 19.189L147.17 20.7617C146.966 21.7163 146.536 22.4283 145.879 22.8978C145.221 23.3673 144.337 23.602 143.226 23.602ZM162.162 23.602C160.393 23.602 159.016 23.1795 158.03 22.3345C157.044 21.4738 156.551 20.1593 156.551 18.391V7.64023H161.856V18.344C161.856 18.7352 161.958 19.0404 162.162 19.2595C162.381 19.4785 162.647 19.5881 162.96 19.5881C163.413 19.5881 163.812 19.4707 164.157 19.236L165.424 22.9213C165.017 23.156 164.524 23.3281 163.945 23.4377C163.382 23.5472 162.787 23.602 162.162 23.602ZM154.791 15.1047V11.2316H164.485V15.1047H154.791ZM173.662 23.602C172.567 23.602 171.487 23.4846 170.423 23.2499C169.359 23.0152 168.498 22.71 167.841 22.3345L169.296 18.8369C169.907 19.1969 170.611 19.4785 171.409 19.682C172.223 19.8854 173.013 19.9871 173.78 19.9871C174.421 19.9871 174.852 19.9324 175.071 19.8228C175.306 19.7133 175.423 19.5646 175.423 19.3768C175.423 19.189 175.29 19.056 175.024 18.9778C174.758 18.8839 174.406 18.8135 173.968 18.7665C173.529 18.7196 173.044 18.6648 172.512 18.6022C171.996 18.524 171.472 18.4144 170.94 18.2736C170.407 18.1327 169.922 17.9215 169.484 17.6398C169.046 17.3581 168.694 16.9826 168.428 16.5131C168.162 16.028 168.029 15.4177 168.029 14.6822C168.029 13.8685 168.271 13.133 168.757 12.4757C169.257 11.8185 169.993 11.2942 170.963 10.903C171.949 10.4961 173.162 10.2927 174.601 10.2927C175.54 10.2927 176.479 10.3788 177.418 10.5509C178.357 10.723 179.163 10.9891 179.836 11.349L178.381 14.8465C177.723 14.4866 177.074 14.244 176.432 14.1188C175.806 13.978 175.219 13.9076 174.672 13.9076C173.999 13.9076 173.537 13.9702 173.287 14.0954C173.052 14.2205 172.935 14.3614 172.935 14.5179C172.935 14.7057 173.068 14.8465 173.334 14.9404C173.6 15.0343 173.952 15.1047 174.39 15.1517C174.828 15.1986 175.306 15.2612 175.822 15.3394C176.354 15.402 176.878 15.5116 177.395 15.6681C177.927 15.8089 178.412 16.0202 178.85 16.3018C179.288 16.5835 179.64 16.9669 179.906 17.452C180.172 17.9215 180.305 18.524 180.305 19.2595C180.305 20.0263 180.063 20.7461 179.578 21.419C179.093 22.0762 178.357 22.6083 177.371 23.0152C176.385 23.4064 175.149 23.602 173.662 23.602Z" fill="white"/>
</svg>
