<svg width="41" height="40" viewBox="0 0 41 40" fill="none" xmlns="http://www.w3.org/2000/svg">
<path d="M13.8644 3.57915C15.2532 1.34913 17.6975 0 20.3164 0C22.9353 0 25.3796 1.34913 26.7684 3.57915L29.8317 8.47569L31.9744 7.23767C32.6411 6.8488 33.4743 6.90436 34.0854 7.37258C34.6965 7.84081 34.9663 8.63441 34.7679 9.3804L32.9109 16.3165C32.6411 17.3323 31.5935 17.9355 30.5777 17.6656L23.6416 15.8086C22.8956 15.6102 22.348 14.9832 22.2448 14.2214C22.1417 13.4595 22.5147 12.7056 23.1813 12.3247L25.4351 11.0232L22.4591 6.26947C21.9988 5.53142 21.1894 5.07907 20.3164 5.07907C19.4434 5.07907 18.6339 5.53142 18.1737 6.26947L16.7848 8.49156C16.0547 9.6661 14.5151 10.0391 13.3247 9.32485C12.1105 8.59473 11.7217 7.00752 12.4756 5.80125L13.8644 3.57915ZM34.0854 19.9909C35.2758 19.2766 36.8154 19.6496 37.5455 20.8242L39.4819 23.9272C40.2279 25.1255 40.6247 26.4984 40.6406 27.9111C40.6644 32.1251 37.2519 35.5614 33.0379 35.5614L25.3955 35.5535V38.093C25.3955 38.8628 24.9352 39.5612 24.2209 39.8548C23.5067 40.1484 22.6893 39.9897 22.1417 39.4421L17.0626 34.3631C16.3166 33.6171 16.3166 32.4108 17.0626 31.6727L22.1417 26.5937C22.6893 26.0461 23.5067 25.8874 24.2209 26.181C24.9352 26.4746 25.3955 27.173 25.3955 27.9428V30.4823H33.0299C34.4267 30.4823 35.5615 29.3395 35.5536 27.9428C35.5536 27.4746 35.4187 27.0143 35.1727 26.6175L33.2363 23.5145C32.4823 22.3082 32.8633 20.721 34.0854 19.9909ZM5.15061 17.5307L2.8571 16.2054C2.19047 15.8165 1.81748 15.0705 1.92065 14.3087C2.02381 13.5468 2.5714 12.9199 3.31739 12.7215L10.2535 10.8644C11.2693 10.5946 12.3169 11.1978 12.5867 12.2136L14.4437 19.1417C14.6421 19.8877 14.3723 20.6734 13.7612 21.1495C13.1501 21.6257 12.3169 21.6733 11.6502 21.2845L9.54718 20.0702L5.46012 26.6095C5.2141 27.0063 5.07919 27.4666 5.07919 27.9349C5.07125 29.3316 6.20611 30.4744 7.60285 30.4744H10.1583C11.5629 30.4744 12.6978 31.6093 12.6978 33.0139C12.6978 34.4186 11.5629 35.5535 10.1583 35.5535H7.60285C3.38881 35.5535 -0.0236843 32.1251 0.000123824 27.9031C0.00805986 26.4905 0.404862 25.1176 1.15879 23.9192L5.15061 17.5307Z" fill="#048A81"/>
</svg>
