<svg width="50" height="40" viewBox="0 0 50 40" fill="none" xmlns="http://www.w3.org/2000/svg">
<path d="M8.58065 0C6.5504 0 4.90323 1.67969 4.90323 3.75V7.5H1.22581C0.551613 7.5 0 8.0625 0 8.75C0 9.4375 0.551613 10 1.22581 10H4.90323H20.8387C21.5129 10 22.0645 10.5625 22.0645 11.25C22.0645 11.9375 21.5129 12.5 20.8387 12.5H4.90323H3.67742C3.00323 12.5 2.45161 13.0625 2.45161 13.75C2.45161 14.4375 3.00323 15 3.67742 15H4.90323H18.3871C19.0613 15 19.6129 15.5625 19.6129 16.25C19.6129 16.9375 19.0613 17.5 18.3871 17.5H4.90323H1.22581C0.551613 17.5 0 18.0625 0 18.75C0 19.4375 0.551613 20 1.22581 20H4.90323H15.9355C16.6097 20 17.1613 20.5625 17.1613 21.25C17.1613 21.9375 16.6097 22.5 15.9355 22.5H4.90323V32.5C4.90323 36.6406 8.19758 40 12.2581 40C16.3185 40 19.6129 36.6406 19.6129 32.5H29.4194C29.4194 36.6406 32.7137 40 36.7742 40C40.8347 40 44.129 36.6406 44.129 32.5H46.5806C47.9367 32.5 49.0323 31.3828 49.0323 30C49.0323 28.6172 47.9367 27.5 46.5806 27.5V22.5V20V18.5391C46.5806 17.2109 46.0673 15.9375 45.148 15L39.2258 8.96094C38.3065 8.02344 37.0577 7.5 35.7552 7.5H31.871V3.75C31.871 1.67969 30.2238 0 28.1935 0H8.58065ZM41.6774 18.5391V20H31.871V12.5H35.7552L41.6774 18.5391ZM12.2581 28.75C13.2334 28.75 14.1687 29.1451 14.8584 29.8483C15.548 30.5516 15.9355 31.5054 15.9355 32.5C15.9355 33.4946 15.548 34.4484 14.8584 35.1516C14.1687 35.8549 13.2334 36.25 12.2581 36.25C11.2828 36.25 10.3474 35.8549 9.65774 35.1516C8.96809 34.4484 8.58065 33.4946 8.58065 32.5C8.58065 31.5054 8.96809 30.5516 9.65774 29.8483C10.3474 29.1451 11.2828 28.75 12.2581 28.75ZM33.0968 32.5C33.0968 31.5054 33.4842 30.5516 34.1739 29.8483C34.8635 29.1451 35.7989 28.75 36.7742 28.75C37.7495 28.75 38.6849 29.1451 39.3745 29.8483C40.0642 30.5516 40.4516 31.5054 40.4516 32.5C40.4516 33.4946 40.0642 34.4484 39.3745 35.1516C38.6849 35.8549 37.7495 36.25 36.7742 36.25C35.7989 36.25 34.8635 35.8549 34.1739 35.1516C33.4842 34.4484 33.0968 33.4946 33.0968 32.5Z" fill="#048A81"/>
</svg>
